<?xml version="1.0" encoding="utf-8"?>
<!DOCTYPE svg PUBLIC "-//W3C//DTD SVG 20010904//EN" "http://www.w3.org/TR/2001/REC-SVG-20010904/DTD/svg10.dtd">
<svg version="1.0" xmlns="http://www.w3.org/2000/svg" width="300px" height="300px" viewBox="0 0 300 300" preserveAspectRatio="xMidYMid meet">
 <g fill="#336666">
  <path d="M5 150 l0 -145 145 0 145 0 0 145 0 145 -145 0 -145 0 0 -145z m256 -2.5 l0 -111.5 -111.5 0 -111.5 0 0 111.5 0 111.5 111.5 0 111.5 0 0 -111.5z"/>
  <path d="M68.6 233.2 l-17 -11.7 9 -1.2 c77.1 -10.3 139.3 -69.8 149.6 -143.2 l1.4 -9.3 17.4 -4.4 c9.6 -2.4 17.7 -4.3 17.9 -4.4 0.8 -0.1 -1.3 15.4 -3.5 26.2 -13.5 64.9 -58.1 119.8 -119.7 147.5 -10.8 4.8 -33.8 12.4 -37 12.2 -0.7 0 -8.8 -5.3 -18.1 -11.7z"/>
  <path d="M82.5 162.8 c-3 -8.6 -27.6 -92.1 -27.2 -92.5 1.2 -1.1 29.2 -9.2 29.8 -8.5 0.7 0.8 27.9 91.2 27.9 92.8 0 0.9 -26.2 9.4 -29 9.4 -0.6 0 -1.3 -0.6 -1.5 -1.2z"/>
  <path d="M137.7 146.3 c-1.2 -2.2 -27.9 -92.4 -27.5 -92.9 0.6 -0.5 25.1 -8 28.1 -8.6 1.7 -0.3 3.6 5.4 15.8 45.7 7.6 25.3 13.9 46.5 13.9 47.1 0 0.5 -6.2 2.9 -13.8 5.2 -14.6 4.4 -15.8 4.7 -16.5 3.5z"/>
 </g>
</svg>